<?xml version="1.0" encoding="utf-8"?>
<!-- Generator: Adobe Illustrator 26.5.0, SVG Export Plug-In . SVG Version: 6.00 Build 0)  -->
<svg version="1.1" id="Layer_1" xmlns="http://www.w3.org/2000/svg" xmlns:xlink="http://www.w3.org/1999/xlink" x="0px" y="0px"
	 viewBox="0 0 200 200" style="enable-background:new 0 0 200 200;" xml:space="preserve">
<path d="M159.45,169.35L30.65,40.55c-2.97-2.97-2.97-6.93,0-9.9c2.97-2.97,6.93-2.97,9.9,0l128.79,128.79c2.97,2.97,2.97,6.93,0,9.9
	C166.38,172.32,162.42,172.32,159.45,169.35z"/>
<path d="M169.35,40.55L40.55,169.35c-2.97,2.97-6.93,2.97-9.9,0c-2.97-2.97-2.97-6.93,0-9.9L159.45,30.65c2.97-2.97,6.93-2.97,9.9,0
	C172.32,33.62,172.32,37.58,169.35,40.55z"/>
</svg>
