<?xml version="1.0" encoding="utf-8"?>
<!-- Generator: Adobe Illustrator 26.5.0, SVG Export Plug-In . SVG Version: 6.00 Build 0)  -->
<svg version="1.1" id="Layer_1" xmlns="http://www.w3.org/2000/svg" xmlns:xlink="http://www.w3.org/1999/xlink" x="0px" y="0px"
	 viewBox="0 0 200 200" style="enable-background:new 0 0 200 200;" xml:space="preserve">
<path d="M184,44H16c-4.2,0-7-2.8-7-7s2.8-7,7-7h168c4.2,0,7,2.8,7,7S188.2,44,184,44z"/>
<path d="M184,107H16c-4.2,0-7-2.8-7-7s2.8-7,7-7h168c4.2,0,7,2.8,7,7S188.2,107,184,107z"/>
<path d="M184,170H16c-4.2,0-7-2.8-7-7s2.8-7,7-7h168c4.2,0,7,2.8,7,7S188.2,170,184,170z"/>
</svg>
