<?xml version="1.0" encoding="utf-8"?>
<!-- Generator: Adobe Illustrator 26.5.0, SVG Export Plug-In . SVG Version: 6.00 Build 0)  -->
<svg version="1.1" id="Layer_1" xmlns="http://www.w3.org/2000/svg" xmlns:xlink="http://www.w3.org/1999/xlink" x="0px" y="0px"
	 viewBox="0 0 36 36" style="enable-background:new 0 0 36 36;" xml:space="preserve">
<style type="text/css">
	.st0{fill:none;stroke:#777777;stroke-width:1.5;stroke-linecap:round;stroke-linejoin:round;stroke-miterlimit:6;}
	.st1{fill:#777777;}
</style>
<path class="st0" d="M10.5,3h15c4.1,0,7.5,3.4,7.5,7.5v15c0,4.1-3.4,7.5-7.5,7.5h-15C6.4,33,3,29.6,3,25.5v-15C3,6.4,6.4,3,10.5,3z"
	/>
<path class="st1" d="M10.7,11.7c-0.2-0.2-0.3-0.5-0.3-0.8c0-0.3,0.1-0.5,0.3-0.7s0.5-0.3,0.7-0.3c0.3,0,0.5,0.1,0.8,0.3
	s0.3,0.5,0.3,0.7c0,0.3-0.1,0.5-0.3,0.8C12,11.9,11.7,12,11.4,12C11.1,12,10.9,11.9,10.7,11.7z"/>
<rect x="10.6" y="13.6" class="st1" width="1.6" height="11.6"/>
<path class="st1" d="M15.8,13.6h1.6v2.1h0c0.3-0.7,0.8-1.2,1.5-1.7c0.7-0.4,1.5-0.7,2.5-0.7c1.4,0,2.5,0.4,3.2,1.3
	c0.8,0.8,1.2,2,1.2,3.5v7.1h-1.6v-6.8c0-1.2-0.3-2-0.8-2.7c-0.6-0.6-1.4-0.9-2.4-0.9c-0.7,0-1.4,0.2-1.9,0.5c-0.5,0.3-1,0.8-1.3,1.4
	c-0.3,0.6-0.5,1.3-0.5,2.1v6.5h-1.6V13.6z"/>
</svg>
