<?xml version="1.0" encoding="utf-8"?>
<!-- Generator: Adobe Illustrator 26.5.0, SVG Export Plug-In . SVG Version: 6.00 Build 0)  -->
<svg version="1.1" id="Layer_1" xmlns="http://www.w3.org/2000/svg" xmlns:xlink="http://www.w3.org/1999/xlink" x="0px" y="0px"
	 viewBox="0 0 484.77 214.41" style="enable-background:new 0 0 484.77 214.41;" xml:space="preserve">
<g>
	<path d="M138.05,71.18c3.71-8.41,6.34-13.01,9.76-20.91c1.22-2.82,2.67-5.53,4.2-8.19c1.28-2.24,2.26-5.53,6.04-3.09
		c4.02,2.59,5.02,5.26,3.26,8.57c-5.1,9.59-10.05,19.27-15.01,28.93c-0.21,0.41-0.32,1.08-0.25,1.51c0.02,0.15,0.12,0.29,0.26,0.35
		c4.46,2.2,7.32-0.57,10.52-3.4c0.55-0.48,1.42-0.28,1.69,0.4c1.41,3.46,1.96,6.36-0.36,9.71c-3,4.33-7.15,5.55-11.29,3.35
		c-5.11-2.71-6.61-0.31-8.44,3.68c-3.14,6.83-6.49,13.59-10.17,20.14c-0.85,1.51-2.88,1.31-4.4,0.49c-1.28-0.35-3.58-1.83-3.02-3.29
		c3.03-7.87,6.47-15.6,10.23-23.16c1.36-2.74,1.32-5.95-0.08-8.67c-2.35-4.57-5.16-10.49-8.84-15.11c-0.39-0.49-1.09-0.62-1.64-0.33
		c-8.68,4.58-17.19,8.61-26.01,13.29c-0.05,0.23-0.25,0.56-0.18,0.83c0.99,3.79,0.84,8.79,5.4,9.96c4.9,1.26,8.59-2.28,11.31-5.9
		c2.11-2.82,3.69-6.03,5.46-9.32c0.62-1.16,2.19-1.39,3.14-0.47c2.45,2.38,2.86,5.5,2.26,8.8c-1.32,7.2-10.35,16.56-16.49,17.14
		c-13.87,1.3-17.99-9.73-19.96-19.45c-2.18,3.33-4.22,6.46-6.28,9.59c-3.44,5.24-7.32,5.45-10.96,0.33
		c-5.08-7.14-4.47-15.5-4.51-23.64c-0.02-3.01,0.44-6.02,0.69-9.13c-9.32,4.02-10.95,4.35-10.28,13.46
		c0.57,7.82,1.13,15.65,1.68,23.47c0.07,0.96,0.4,2.08,0.04,2.85c-1.12,2.34-2.05,5.32-4,6.52c-1.19,0.73-4.65-0.8-6.18-2.26
		c-5.33-5.09-8.78-9-12.98-14.2c-1.06-1.32-4.02-4.44-6.61-6.77c-0.4-0.36-1.05-0.18-1.21,0.34c-2.48,7.76-5.19,14.54-7.76,21.19
		c-1.15,2.97-1.49,6.84-6.03,5.73c-3.2-0.78-4.75-7.11-3.21-10.47c3.18-6.96,6.34-14.84,9.2-21.93c0.38-0.94-0.4-1.48-1.32-2.17
		c-1.61-1.21-4.14-2.06-5.7-3.3c-1.88-1.51-3.92-3.44-4.66-5.6c-0.94-2.78,0.12-4.83,4.02-4.35c15.03,1.84,13.1,1.94,17.48-10.77
		c3.71-10.75,6.78-21.67,13.49-31.04c1.1-1.54,2.66-3.92,4.09-3.74c3.87,0.48,5.28,3.43,5.78,5.7c1.39,6.38,1.74,12.99,2.37,19.52
		c0.37,3.89,0.49,7.81,0.77,12.46c7.01-3.1,12.21-6.87,15.51-12.56c0.61-1.05,1.88-1.54,3.02-1.13c6.24,2.21,6.43,5.33,2.84,13.67
		c-3,6.97-4.1,14.62-3.22,22.16c0.27,2.34,0.22,2.18,0.54,3.69c0.15,0.7,0.26,0.95,0.31,1.03c0.61,0.86,1.93,0.75,2.49-0.14
		c2.62-4.17,5.33-7.98,7.14-12.18c1.76-4.11,2.72-8.57,3.59-12.06c0.29-1.17,1.25-2.05,2.43-2.27c3.51-0.65,6.38-1.1,9.16-1.88
		c4.15-1.17,8.19-2.72,12.28-4.12c4.42-1.52,7.56,0.57,10.85,3.28c6.94,5.73,10.29,11.97,14.49,19.64
		C135.96,68.13,137.16,70.4,138.05,71.18z M28.86,67.54c6.35,5.81,12.15,13.95,18.78,20.32c-0.5-9.03-0.94-16.45-1.46-25.9
		C39.85,63.64,34.5,66.03,28.86,67.54z M32.75,52.34c-0.37,1.25-1.56,3.55-0.11,3.24c3.27-0.8,6.04-1.26,9.31-2.07
		c2.98-0.74,4-2.54,3.72-5.64c-0.59-6.36-0.82-12.76-1.28-19.13c-0.08-1.08-0.19-2.8-0.79-3.2c-0.57-0.31-1.74,0.7-2.7,2.88
		C36.81,39.06,35.76,42.66,32.75,52.34z M114.95,55.17c-0.17-0.35-1.42-1.23-2.62-1.79c-0.6-0.28-1.62-0.2-2.21,0.11
		c-6.38,3.33-11.83,5.06-17.71,7.69c-0.34,1.32-0.32,3.46,0.05,4.23C98.5,62.37,108.92,58.21,114.95,55.17z"/>
	<path d="M469.14,74.39c-2.75,3.65-5.06,7.42-7.47,10.02c-5.57,6-10.75,5.09-14.47-2.22c-3.29-6.47-2.9-14.11-1.27-20.89
		c1.01-4.18,1.95-7.38,2.69-11.62c0.29-1.64,0.33-4.18,0.06-5.08c-0.12-0.38-0.46-0.66-0.76-0.76l0,0
		c-0.49-0.16-1.49,0.22-2.07,1.14c-1.12,1.78-2.05,3.52-2.66,6.19c-1.66,7.42-2.39,14-4.13,21.41c-1.01,4.29-2.57,8.58-4.65,12.46
		c-3.75,7.01-9.58,8.12-15.44,2.65c-4.44-4.14-8.1-9.16-11.9-13.94c-1.82-2.29-3.17-4.94-5.63-8.84
		c-0.88,6.76-1.65,12.02-2.21,17.31c-0.36,3.38-0.47,7.47-4.87,7.24c-4.35-0.23-5.92-3.96-5.42-8.04
		c1.26-10.34,2.65-20.67,4.2-30.97c0.28-1.87,1.55-3.63,2.48-5.37c2.43-4.49,5.07-4.67,7.6-0.01c2.04,3.74,2.71,8.23,4.83,11.92
		c3.75,6.53,7.69,13.06,12.4,18.91c3.53,4.38,6.71,3.55,8.63-1.95c1.85-5.27,2.73-10.89,4.09-16.33c1.81-7.27,2.75-13.63,6.02-19.85
		c1.46-2.79,4.93-6.11,7.67-5.65c3.87,0.64,7.18,3.54,9.12,6.55c3.72,5.77,2.46,12.42,0.89,18.82c-1.3,5.29-3.18,9.58-3.67,15.93
		c-0.08,1.03,0.85,2.45,2.28,1.16c0.96-0.91,3.13-3.36,4.44-5.22c3.05-4.34,5.8-8.88,8.89-13.19c0.86-1.19,2.41-2.81,3.64-2.56
		c2.59,0.54,4.22,2.22,4.57,3.81c0.98,4.48,1.4,9.16,1.39,13.76c-0.04,27.35,0.26,27.22-0.62,54.55
		c-0.6,18.84-2.86,37.62-4.51,56.42c-0.55,6.25-1.61,12.46-2.18,18.7c-0.26,2.87,0.1,6.28-3.89,6.11c-3.54-0.15-6.56-2.2-6.21-6.34
		c0.28-3.4,1.4-6.72,2.05-10.09c4.92-25.47,6.07-47.34,6.77-77.12c-0.34-21.06-0.34-14.62-0.5-35.67
		C469.29,77.29,469.34,76.74,469.14,74.39z"/>
	<path d="M337.82,56.75c-5.83,3.14-10.71,6.57-15.35,9.4c-1.14,0.69-1.99,2.68-2.07,4.12c-0.35,6.61-0.45,16.23-0.48,22.84
		c-0.02,2.77,0.17,5.26-3.46,6.09c-3.72,0.85-5.29-1.66-5.54-4.14c-0.52-5.18-0.16-10.44-0.16-16.43c-3.03,2.39-5.55,4.56-8.27,6.44
		c-2.02,1.4-4.22,2.66-6.49,3.59c-15.99,6.55-25.56-2.83-28.46-16.63c-2.05-9.78,0.33-19.11,6.57-27.67
		c4.05-5.55,7.92-10.78,13.83-14.49c12.07-7.58,20.59-3.84,22.51,10.03c0.86,6.22-0.55,12.83-1.47,19.18
		c-0.19,1.33-2.67,3-4.27,3.21c-1,0.13-2.99-2.02-3.33-3.44c-0.53-2.17-0.11-4.6,0.07-6.9c0.22-2.81,0.88-5.6,0.83-8.4
		c-0.03-2.15-0.41-5.81-1.43-6.11c-2.01-0.59-5.05,0.01-6.84,1.28c-11.04,7.88-18.49,18.04-18.34,32.26c0.07,6.52,3.24,9.4,9.7,9.24
		c6.46-0.16,14.18-3.55,14.95-8.54c0.4-2.62,4.61-4.94,7.65-7.58c2.54-2.2,3.92-3.75,4.6-8.14c1.06-6.84,2.18-13.71,3.69-20.48
		c1.13-5.06,2.45-5.16,6.07-1.74c3.02,2.86,3.77,5.79,2.27,9.81c-1.35,3.64-1.97,6.88-2.49,11.41c7.84-4.5,12.28-6.23,16.84-11.04
		c1.26-1.42,3.36-3.75,4.38-3.39c2.65,0.94,4.37,3.79,5.86,6.17c0.72,1.16,0.34,3.3-0.09,4.87c-1.79,5.97-2.65,6.72-2.87,18.11
		c0.09,4.57,1.59,12.84,2.71,16.63c0.99,3.36-0.41,4.81-3.24,6.08c-3.27,1.47-4.74-0.77-5.1-2.88c-1.22-7.1-1.96-12.28-2.76-19.45
		C337.4,65.6,337.5,60.74,337.82,56.75z"/>
	<path d="M237.81,81.3c2.05,1.43,5.09,2.48,5.85,4.41c0.58,1.48-1.35,5.71-2.82,5.87c-2.73,0.29-6.57,0.22-8.07-1.63
		c-4.17-5.13-4.93-8.21-6.44-15.52c-0.68-3.28-0.93-6.71-1.53-11.57c-2.85,6.86-5.04,12.41-7.46,17.85
		c-1.14,2.56-2.46,5.12-4.13,7.35c-3.51,4.69-7.79,4.77-10.74-0.26c-2.72-4.64-4.4-9.88-6.84-15.58c-0.75,4.8-1.33,9.19-2.15,13.53
		c-0.59,3.12-0.31,7.59-4.86,7.41c-4.56-0.18-5.74-4.29-5.39-8.11c1.55-16.96,3.35-33.89,5.09-50.83c0.43-4.16,2.5-4.05,5.38-2.03
		c6.13,4.32,6.76,11.15,7.91,17.61c1.56,8.77,0.88,9.22,2.55,17.97c0.49,2.54,1.84,8.36,2.11,8.82c0.27,0.44,0.57,0.88,1.01,0.6
		c1.53-0.96,2.01-1.82,3.05-4.09c5.22-11.41,7.1-20.89,11.16-32.57c0.16-0.47,1.25-3.45,1.49-3.86c0.37-0.63,0.75-1.25,1.13-1.87
		c1.36-2.22,4.4-2.59,6.26-0.77c1.11,1.08,2.08,2.22,2.6,3.54c1.13,2.91,0.33,6.53,0.51,9.84c-0.33,13.24-0.46,17.35,1.65,28.79
		C235.28,77.98,236.65,80.68,237.81,81.3z"/>
	<path d="M352.38,54.16c0.99-3.13,4.4-4.93,7.52-3.91c4.28,1.4,8.77-0.54,13.13-1.21c8.04-1.24,14.24,2.85,15.63,10.66
		c2.23,12.51-7.4,25-20.04,26.04c-5.07,0.41-9.04-1.65-12.17-5.45C351.07,73.75,349.55,63.07,352.38,54.16z M375.28,59.57
		c-0.07-0.02-0.15-0.04-0.22-0.05c-0.85-0.09-2.3,0.02-2.82,0.1c-3.51,0.54-4.96,0.97-7.69,1.02c-5.25,0.09-4.65,3.83-4.5,6.99
		c0.16,3.54,2.8,6.58,5.6,6.58c1.68,0,6.04,0.32,11.77-5.9c0.85-0.92,1.38-2.29,1.68-3.92c0.37-2-0.82-3.96-2.77-4.52L375.28,59.57z
		"/>
	<path d="M247.42,81c-0.09-0.76,0.12-1.53,0.57-2.16c0.73-1.03,1.77-2.49,3.16-3.02c2.46-0.93,6.74,4,6.23,7.51
		c-0.24,1.66-2.33,3.84-4.01,4.33C250.81,88.42,247.93,85.35,247.42,81z"/>
</g>
</svg>
